M48
; DRILL file KiCad 10.0.1 date 2026-05-26T07:52:30
; FORMAT={-:-/ absolute / metric / decimal}
; #@! TF.CreationDate,2026-05-26T07:52:30+05:30
; #@! TF.GenerationSoftware,Kicad,Pcbnew,10.0.1
; #@! TF.FileFunction,Plated,1,2,PTH
FMAT,2
METRIC
; #@! TA.AperFunction,Plated,PTH,ViaDrill
T1C0.300
; #@! TA.AperFunction,Plated,PTH,ComponentDrill
T2C1.000
%
G90
G05
T1
X137.16Y-106.68
X137.16Y-109.22
X137.16Y-124.46
X137.16Y-137.16
X139.7Y-149.86
X139.7Y-154.94
X140.124Y-124.036
X142.24Y-139.7
X144.78Y-96.52
X144.78Y-109.22
X144.78Y-132.08
X144.78Y-154.94
X149.86Y-91.44
X152.4Y-106.68
X152.4Y-111.76
X157.48Y-104.14
X157.48Y-129.54
X162.56Y-91.44
X162.56Y-104.14
X162.56Y-111.76
X165.1Y-91.44
X165.1Y-96.52
X165.1Y-104.14
X165.1Y-111.76
X165.1Y-127.0
X167.64Y-104.14
X167.64Y-132.08
X167.64Y-137.16
X170.18Y-149.86
X172.12Y-127.0
T2
X134.62Y-104.14
X134.62Y-106.68
X134.62Y-109.22
X134.62Y-119.38
X134.62Y-121.92
X134.62Y-124.46
X134.62Y-134.62
X134.62Y-137.16
X134.62Y-139.7
X134.62Y-142.24
X139.7Y-93.98
X139.7Y-152.4
X142.24Y-93.98
X142.24Y-152.4
X144.78Y-93.98
X144.78Y-152.4
X147.32Y-93.98
X147.32Y-101.6
X147.32Y-104.14
X147.32Y-106.68
X147.32Y-109.22
X147.32Y-111.76
X147.32Y-114.3
X147.32Y-116.84
X147.32Y-119.38
X147.32Y-121.92
X147.32Y-124.46
X147.32Y-127.0
X147.32Y-129.54
X147.32Y-132.08
X147.32Y-134.62
X147.32Y-137.16
X147.32Y-139.7
X147.32Y-142.24
X147.32Y-144.78
X147.32Y-152.4
X149.86Y-93.98
X154.94Y-101.6
X154.94Y-104.14
X154.94Y-106.68
X154.94Y-109.22
X154.94Y-111.76
X154.94Y-114.3
X154.94Y-116.84
X154.94Y-119.38
X154.94Y-121.92
X154.94Y-124.46
X154.94Y-127.0
X154.94Y-129.54
X154.94Y-132.08
X154.94Y-134.62
X154.94Y-137.16
X154.94Y-139.7
X154.94Y-142.24
X154.94Y-144.78
X157.48Y-93.98
X160.02Y-93.98
X160.02Y-101.6
X160.02Y-104.14
X160.02Y-106.68
X160.02Y-109.22
X160.02Y-111.76
X160.02Y-124.46
X160.02Y-127.0
X160.02Y-129.54
X160.02Y-132.08
X160.02Y-134.62
X160.02Y-137.16
X160.02Y-139.7
X162.56Y-93.98
X162.56Y-152.4
X165.1Y-93.98
X165.1Y-152.4
X167.64Y-152.4
X170.18Y-101.6
X170.18Y-104.14
X170.18Y-106.68
X170.18Y-109.22
X170.18Y-111.76
X170.18Y-114.3
X170.18Y-124.46
X170.18Y-127.0
X170.18Y-129.54
X170.18Y-132.08
X170.18Y-134.62
X170.18Y-137.16
X170.18Y-152.4
X172.72Y-152.4
M30
