%TF.GenerationSoftware,KiCad,Pcbnew,10.0.1*%
%TF.CreationDate,2026-05-26T07:52:26+05:30*%
%TF.ProjectId,ESP32-S3-WROOM-1_v1,45535033-322d-4533-932d-57524f4f4d2d,rev?*%
%TF.SameCoordinates,Original*%
%TF.FileFunction,Copper,L2,Bot*%
%TF.FilePolarity,Positive*%
%FSLAX46Y46*%
G04 Gerber Fmt 4.6, Leading zero omitted, Abs format (unit mm)*
G04 Created by KiCad (PCBNEW 10.0.1) date 2026-05-26 07:52:26*
%MOMM*%
%LPD*%
G01*
G04 APERTURE LIST*
%TA.AperFunction,ComponentPad*%
%ADD10C,1.700000*%
%TD*%
%TA.AperFunction,ComponentPad*%
%ADD11R,1.700000X1.700000*%
%TD*%
%TA.AperFunction,ViaPad*%
%ADD12C,0.600000*%
%TD*%
%TA.AperFunction,Conductor*%
%ADD13C,0.200000*%
%TD*%
G04 APERTURE END LIST*
D10*
%TO.P,J11,4,GND_4*%
%TO.N,GND*%
X165100000Y-93980000D03*
%TO.P,J11,3,TX_3*%
%TO.N,/TX*%
X162560000Y-93980000D03*
%TO.P,J11,2,RX_2*%
%TO.N,/RX*%
X160020000Y-93980000D03*
D11*
%TO.P,J11,1,VCC_1*%
%TO.N,/3V3*%
X157480000Y-93980000D03*
%TD*%
%TO.P,J3,1,+_1*%
%TO.N,/3V3*%
X134620000Y-119380000D03*
D10*
%TO.P,J3,2,DATA_2*%
%TO.N,/5*%
X134620000Y-121920000D03*
%TO.P,J3,3,-_3*%
%TO.N,GND*%
X134620000Y-124460000D03*
%TD*%
D11*
%TO.P,J10,1,VCC_1*%
%TO.N,/3V3*%
X172720000Y-152400000D03*
D10*
%TO.P,J10,2,GND_2*%
%TO.N,GND*%
X170180000Y-152400000D03*
%TO.P,J10,3,SCL_3*%
%TO.N,/SCL*%
X167640000Y-152400000D03*
%TO.P,J10,4,SDA_4*%
%TO.N,/SDA*%
X165100000Y-152400000D03*
%TO.P,J10,5,INT_5*%
%TO.N,unconnected-(J10-INT-Pad5)*%
X162560000Y-152400000D03*
%TD*%
D11*
%TO.P,J6,1,VCC_1*%
%TO.N,/3V3*%
X170180000Y-124460000D03*
D10*
%TO.P,J6,2,GND_2*%
%TO.N,GND*%
X170180000Y-127000000D03*
%TO.P,J6,3,SCL_3*%
%TO.N,/SCL*%
X170180000Y-129540000D03*
%TO.P,J6,4,SDA_4*%
%TO.N,/SDA*%
X170180000Y-132080000D03*
%TO.P,J6,5,CSB_5*%
%TO.N,/3V3*%
X170180000Y-134620000D03*
%TO.P,J6,6,SDD_6*%
%TO.N,GND*%
X170180000Y-137160000D03*
%TD*%
D11*
%TO.P,J2,1,GND_1*%
%TO.N,GND*%
X154940000Y-101600000D03*
D10*
%TO.P,J2,2,TX_2*%
%TO.N,/TX*%
X154940000Y-104140000D03*
%TO.P,J2,3,RX_3*%
%TO.N,/RX*%
X154940000Y-106680000D03*
%TO.P,J2,4,1_4*%
%TO.N,/1*%
X154940000Y-109220000D03*
%TO.P,J2,5,2_5*%
%TO.N,/2*%
X154940000Y-111760000D03*
%TO.P,J2,6,42_6*%
%TO.N,unconnected-(J2-42-Pad6)*%
X154940000Y-114300000D03*
%TO.P,J2,7,41_7*%
%TO.N,unconnected-(J2-41-Pad7)*%
X154940000Y-116840000D03*
%TO.P,J2,8,40_8*%
%TO.N,unconnected-(J2-40-Pad8)*%
X154940000Y-119380000D03*
%TO.P,J2,9,39_9*%
%TO.N,unconnected-(J2-39-Pad9)*%
X154940000Y-121920000D03*
%TO.P,J2,10,38_10*%
%TO.N,unconnected-(J2-38-Pad10)*%
X154940000Y-124460000D03*
%TO.P,J2,11,37_11*%
%TO.N,unconnected-(J2-37-Pad11)*%
X154940000Y-127000000D03*
%TO.P,J2,12,36_12*%
%TO.N,unconnected-(J2-36-Pad12)*%
X154940000Y-129540000D03*
%TO.P,J2,13,35_13*%
%TO.N,unconnected-(J2-35-Pad13)*%
X154940000Y-132080000D03*
%TO.P,J2,14,0_14*%
%TO.N,unconnected-(J2-0-Pad14)*%
X154940000Y-134620000D03*
%TO.P,J2,15,45_15*%
%TO.N,unconnected-(J2-45-Pad15)*%
X154940000Y-137160000D03*
%TO.P,J2,16,48_16*%
%TO.N,unconnected-(J2-48-Pad16)*%
X154940000Y-139700000D03*
%TO.P,J2,17,47_17*%
%TO.N,unconnected-(J2-47-Pad17)*%
X154940000Y-142240000D03*
%TO.P,J2,18,21_18*%
%TO.N,unconnected-(J2-21-Pad18)*%
X154940000Y-144780000D03*
%TD*%
D11*
%TO.P,J13,1,VIN_1*%
%TO.N,/5V*%
X139700000Y-93980000D03*
D10*
%TO.P,J13,2,3.3V_2*%
%TO.N,unconnected-(J13-3.3V-Pad2)*%
X142240000Y-93980000D03*
%TO.P,J13,3,GND_3*%
%TO.N,GND*%
X144780000Y-93980000D03*
%TO.P,J13,4,OUT_4*%
%TO.N,/2*%
X147320000Y-93980000D03*
%TO.P,J13,5,EN_5*%
%TO.N,/3V3*%
X149860000Y-93980000D03*
%TD*%
D11*
%TO.P,J1,1,3V3_1*%
%TO.N,/3V3*%
X147320000Y-101600000D03*
D10*
%TO.P,J1,2,3V3_2*%
%TO.N,unconnected-(J1-3V3-Pad2)*%
X147320000Y-104140000D03*
%TO.P,J1,3,RST_3*%
%TO.N,unconnected-(J1-RST-Pad3)*%
X147320000Y-106680000D03*
%TO.P,J1,4,4_4*%
%TO.N,/4*%
X147320000Y-109220000D03*
%TO.P,J1,5,5_5*%
%TO.N,/5*%
X147320000Y-111760000D03*
%TO.P,J1,6,6_6*%
%TO.N,unconnected-(J1-Pad6)*%
X147320000Y-114300000D03*
%TO.P,J1,7,7_7*%
%TO.N,unconnected-(J1-Pad7)*%
X147320000Y-116840000D03*
%TO.P,J1,8,15_8*%
%TO.N,unconnected-(J1-15-Pad8)*%
X147320000Y-119380000D03*
%TO.P,J1,9,16_9*%
%TO.N,unconnected-(J1-16-Pad9)*%
X147320000Y-121920000D03*
%TO.P,J1,10,17_10*%
%TO.N,unconnected-(J1-17-Pad10)*%
X147320000Y-124460000D03*
%TO.P,J1,11,18_11*%
%TO.N,unconnected-(J1-18-Pad11)*%
X147320000Y-127000000D03*
%TO.P,J1,12,8_12*%
%TO.N,/SDA*%
X147320000Y-129540000D03*
%TO.P,J1,13,3_13*%
%TO.N,unconnected-(J1-3-Pad13)*%
X147320000Y-132080000D03*
%TO.P,J1,14,46_14*%
%TO.N,unconnected-(J1-46-Pad14)*%
X147320000Y-134620000D03*
%TO.P,J1,15,9_15*%
%TO.N,/SCL*%
X147320000Y-137160000D03*
%TO.P,J1,16,10_16*%
%TO.N,unconnected-(J1-10-Pad16)*%
X147320000Y-139700000D03*
%TO.P,J1,17,11_17*%
%TO.N,unconnected-(J1-11-Pad17)*%
X147320000Y-142240000D03*
%TO.P,J1,18,12_18*%
%TO.N,unconnected-(J1-12-Pad18)*%
X147320000Y-144780000D03*
%TD*%
D11*
%TO.P,J5,1,VCC_1*%
%TO.N,/3V3*%
X160020000Y-101600000D03*
D10*
%TO.P,J5,2,GND_2*%
%TO.N,GND*%
X160020000Y-104140000D03*
%TO.P,J5,3,SCL_3*%
%TO.N,/SCL*%
X160020000Y-106680000D03*
%TO.P,J5,4,SDA_4*%
%TO.N,/SDA*%
X160020000Y-109220000D03*
%TO.P,J5,5,ADDR_5*%
%TO.N,GND*%
X160020000Y-111760000D03*
%TD*%
D11*
%TO.P,J12,1,VIN_1*%
%TO.N,/3V3*%
X160020000Y-124460000D03*
D10*
%TO.P,J12,2,3V3_2*%
%TO.N,unconnected-(J12-3V3-Pad2)*%
X160020000Y-127000000D03*
%TO.P,J12,3,GND_3*%
%TO.N,GND*%
X160020000Y-129540000D03*
%TO.P,J12,4,SCK_4*%
%TO.N,/SCL*%
X160020000Y-132080000D03*
%TO.P,J12,5,SDO_5*%
%TO.N,/3V3*%
X160020000Y-134620000D03*
%TO.P,J12,6,SCI_6*%
%TO.N,/SDA*%
X160020000Y-137160000D03*
%TO.P,J12,7,CS_7*%
%TO.N,/3V3*%
X160020000Y-139700000D03*
%TD*%
D11*
%TO.P,J9,1,VCC_1*%
%TO.N,/3V3*%
X147320000Y-152400000D03*
D10*
%TO.P,J9,2,GND_2*%
%TO.N,GND*%
X144780000Y-152400000D03*
%TO.P,J9,3,SCL_3*%
%TO.N,/SCL*%
X142240000Y-152400000D03*
%TO.P,J9,4,SDA_4*%
%TO.N,/SDA*%
X139700000Y-152400000D03*
%TD*%
D11*
%TO.P,J7,1,VCC_1*%
%TO.N,/3V3*%
X170180000Y-101600000D03*
D10*
%TO.P,J7,2,GND_2*%
%TO.N,GND*%
X170180000Y-104140000D03*
%TO.P,J7,3,SCL_3*%
%TO.N,/SCL*%
X170180000Y-106680000D03*
%TO.P,J7,4,SDA_4*%
%TO.N,/SDA*%
X170180000Y-109220000D03*
%TO.P,J7,5,VIN-_5*%
%TO.N,unconnected-(J7-VIN--Pad5)*%
X170180000Y-111760000D03*
%TO.P,J7,6,VIN+_6*%
%TO.N,unconnected-(J7-VIN+-Pad6)*%
X170180000Y-114300000D03*
%TD*%
D11*
%TO.P,J4,1,+_1*%
%TO.N,/3V3*%
X134620000Y-104140000D03*
D10*
%TO.P,J4,2,OUT_2*%
%TO.N,/4*%
X134620000Y-106680000D03*
%TO.P,J4,3,-_3*%
%TO.N,GND*%
X134620000Y-109220000D03*
%TD*%
D11*
%TO.P,J8,1,VCC_1*%
%TO.N,/5V*%
X134620000Y-134620000D03*
D10*
%TO.P,J8,2,GND_2*%
%TO.N,GND*%
X134620000Y-137160000D03*
%TO.P,J8,3,DO_3*%
%TO.N,unconnected-(J8-DO-Pad3)*%
X134620000Y-139700000D03*
%TO.P,J8,4,AO_4*%
%TO.N,/1*%
X134620000Y-142240000D03*
%TD*%
D12*
%TO.N,/SCL*%
X165100000Y-127000000D03*
X165100000Y-104140000D03*
X139700000Y-154940000D03*
X142240000Y-139700000D03*
%TO.N,/SDA*%
X167640000Y-132080000D03*
X144780000Y-132080000D03*
X165100000Y-111760000D03*
X139700000Y-149860000D03*
%TO.N,/4*%
X144780000Y-109220000D03*
X137160000Y-106680000D03*
%TO.N,/RX*%
X152400000Y-106680000D03*
X162560000Y-91440000D03*
%TO.N,GND*%
X144780000Y-96520000D03*
X137160000Y-124460000D03*
X162560000Y-111760000D03*
X165100000Y-96520000D03*
X162560000Y-104140000D03*
X157480000Y-129540000D03*
X167640000Y-137160000D03*
X137160000Y-137160000D03*
X144780000Y-154940000D03*
X170180000Y-149860000D03*
X140124265Y-124035735D03*
X137160000Y-109220000D03*
X167640000Y-104140000D03*
X172120000Y-127000000D03*
%TO.N,/TX*%
X165100000Y-91440000D03*
X157480000Y-104140000D03*
%TO.N,/2*%
X149860000Y-91440000D03*
X152400000Y-111760000D03*
%TD*%
%TO.N,/SCL*%
D13*
X168240000Y-132328529D02*
X167888529Y-132680000D01*
X163830000Y-128270000D02*
X158870000Y-133230000D01*
X167888529Y-132680000D02*
X167391471Y-132680000D01*
X142240000Y-142240000D02*
X142240000Y-152400000D01*
X165100000Y-127000000D02*
X163830000Y-128270000D01*
X163830000Y-129118529D02*
X163830000Y-128270000D01*
X168240000Y-107280000D02*
X168240000Y-132328529D01*
X149860000Y-139700000D02*
X148470000Y-141090000D01*
X158870000Y-133230000D02*
X153790000Y-133230000D01*
X143390000Y-141090000D02*
X142240000Y-142240000D01*
X153790000Y-133230000D02*
X149860000Y-137160000D01*
X142240000Y-139700000D02*
X142240000Y-142240000D01*
X165100000Y-104140000D02*
X168240000Y-107280000D01*
X149860000Y-137160000D02*
X149860000Y-139700000D01*
X142240000Y-152400000D02*
X139700000Y-154940000D01*
X148470000Y-141090000D02*
X143390000Y-141090000D01*
X167391471Y-132680000D02*
X163830000Y-129118529D01*
%TO.N,/SDA*%
X148590000Y-133350000D02*
X143510000Y-133350000D01*
X167640000Y-132080000D02*
X167640000Y-128691471D01*
X144780000Y-132080000D02*
X143510000Y-133350000D01*
X167640000Y-128691471D02*
X165348529Y-126400000D01*
X137160000Y-139700000D02*
X137160000Y-147320000D01*
X165348529Y-126400000D02*
X164851471Y-126400000D01*
X165100000Y-126151471D02*
X164851471Y-126400000D01*
X143510000Y-133350000D02*
X137160000Y-139700000D01*
X165100000Y-111760000D02*
X165100000Y-126151471D01*
X151010000Y-130930000D02*
X148590000Y-133350000D01*
X137160000Y-147320000D02*
X139700000Y-149860000D01*
X160321471Y-130930000D02*
X151010000Y-130930000D01*
X164851471Y-126400000D02*
X160321471Y-130930000D01*
%TO.N,/4*%
X144780000Y-109220000D02*
X142240000Y-106680000D01*
X142240000Y-106680000D02*
X137160000Y-106680000D01*
%TO.N,/RX*%
X152400000Y-101600000D02*
X162560000Y-91440000D01*
X152400000Y-106680000D02*
X152400000Y-101600000D01*
%TO.N,/TX*%
X165100000Y-91440000D02*
X162560000Y-93980000D01*
X157480000Y-99060000D02*
X165100000Y-91440000D01*
X157480000Y-104140000D02*
X157480000Y-99060000D01*
%TO.N,/2*%
X151800000Y-93380000D02*
X149860000Y-91440000D01*
X152400000Y-111760000D02*
X151800000Y-111160000D01*
X151800000Y-111160000D02*
X151800000Y-93380000D01*
%TD*%
M02*
